# xmcd
#
# Track frame offsets: 
#        150
#        13255
#        25985
#        40285
#        53652
#        67070
#        80040
#        92907
#        106127
#        118710
#        131155
#        144432
#        158575
#        171975
#        186145
#        199572
#        212942
#        227197
#        240632
#        253515
#        267020
#        280295
#        293222
#        306670
#        320122
#        334075
#
# Disc length: 4654 seconds
#
# Revision: 0
# Processed by: cddbd v1.5.2PL0 Copyright (c) Steve Scherf et al.
# Submitted via: ExactAudioCopy v0.95b4
#
DISCID=8f122c1a
DTITLE=Uncle Dave Macon - Keep my skillet good and greasy [CD3]
DYEAR=2004
DGENRE=Folk
TTITLE0=Ain't it a shame to keep your honey out in the rain
TTITLE1=Stop that knocking on my door
TTITLE2=Sassy Sam
TTITLE3=Shout, mourner, you shall be free
TTITLE4=I don't care if I never wake up
TTITLE5=In the good old summer time
TTITLE6=Something's always sure to tickle me
TTITLE7=Sourwood Mountain medley
TTITLE8=Deliverance will come
TTITLE9=Wouldn't give me sugar in my coffee
TTITLE10=Kissin' on the sly
TTITLE11=Hold on to the sleigh
TTITLE12=In the good old days of long ago
TTITLE13=My girl's a high born lady
TTITLE14=The cross eyed butcher and the cackling hen
TTITLE15=In the old Carolina state (where the sweet magnolias bloom)
TTITLE16=Never make love no more
TTITLE17=Arcade blues
TTITLE18=Them two gals of mine
TTITLE19=Diamond in the rough
TTITLE20=Tossing the baby so high
TTITLE21=Sho' fly, don't bother me
TTITLE22=Uncle Ned
TTITLE23=Braying mule
TTITLE24=Bake that chicken pie
TTITLE25=Rock about my Sara Jane
EXTD=
EXTT0=
EXTT1=
EXTT2=
EXTT3=
EXTT4=
EXTT5=
EXTT6=
EXTT7=
EXTT8=
EXTT9=
EXTT10=
EXTT11=
EXTT12=
EXTT13=
EXTT14=
EXTT15=
EXTT16=
EXTT17=
EXTT18=
EXTT19=
EXTT20=
EXTT21=
EXTT22=
EXTT23=
EXTT24=
EXTT25=
PLAYORDER=
